<svg width="143" height="40" viewBox="0 0 143 40" fill="none" xmlns="http://www.w3.org/2000/svg">
<path fill-rule="evenodd" clip-rule="evenodd" d="M3.05353 2.92893C4.92926 1.05357 7.47329 0 10.126 0H40.1318V30C40.1318 32.6522 39.0781 35.1957 37.2023 37.0711C35.3266 38.9464 32.7826 40 30.1299 40H10.126C7.47329 40 4.92926 38.9464 3.05353 37.0711C1.1778 35.1957 0.124023 32.6522 0.124023 30V10C0.124023 7.34784 1.1778 4.8043 3.05353 2.92893ZM28.3829 14.996H33.1848L27.7491 20.9667L33.1767 29.9756H28.8622L25.1166 23.8262L23.8003 25.2559V29.9269H20.0953V28.3022C18.6063 29.5555 16.7112 30.2228 14.7653 30.1787C12.0596 30.1787 9.98772 29.3989 8.60646 27.8473C7.62234 26.7152 7.0497 25.2839 6.98145 23.7856H10.9302C10.9302 23.7856 11.0521 26.515 14.749 26.515C16.1953 26.515 18.3565 25.987 18.4134 24.143C18.4703 22.299 16.4796 21.9172 14.4078 21.6491C11.7834 21.3079 8.20833 20.6905 7.34707 16.84C7.20417 16.0221 7.23905 15.1831 7.44935 14.3799C7.65965 13.5767 8.04044 12.8282 8.56583 12.1852C9.21507 11.3992 10.0383 10.775 10.9704 10.3619C11.9025 9.9488 12.918 9.75816 13.9365 9.80506C14.9975 9.74341 16.0597 9.90456 17.0546 10.2781C18.0496 10.6517 18.9553 11.2294 19.7134 11.974C19.8543 12.1257 19.9843 12.28 20.1034 12.4371V10H23.8085V20L28.3829 14.996ZM14.0096 13.2738C12.1571 13.2738 10.7352 14.541 11.0602 15.9708C11.3979 17.4545 13.2761 17.7188 15.3435 18.0096C17.0565 18.2506 18.8995 18.5098 20.1034 19.4964V15.9708H17.9665C17.3328 13.6475 15.6346 13.2738 14.0096 13.2738ZM56.8537 18.952C56.7347 18.7558 56.6016 18.5685 56.4556 18.3915C56.2796 18.2033 56.077 18.0418 55.8543 17.9122C55.6002 17.7602 55.327 17.6427 55.0418 17.5629C54.6621 17.4677 54.2713 17.4239 53.8799 17.4329C53.6592 17.4371 53.4391 17.4589 53.2218 17.4979C52.9434 17.5627 52.6715 17.6524 52.4093 17.766C52.1189 17.9228 51.8465 18.1108 51.5968 18.3265C51.3152 18.5852 51.0838 18.8936 50.9143 19.2363C50.6714 19.6732 50.4961 20.1443 50.3943 20.6336C50.2612 21.2665 50.1985 21.9122 50.2074 22.5588C50.1972 23.287 50.2819 24.0134 50.4593 24.7197C50.5986 25.301 50.8437 25.8517 51.1824 26.3444C51.4806 26.7668 51.8801 27.1076 52.3443 27.3354C52.8106 27.5781 53.3299 27.7009 53.8555 27.6929C54.412 27.7137 54.9663 27.614 55.4806 27.4004C55.861 27.2217 56.201 26.9674 56.4799 26.6531C56.7072 26.3809 56.8834 26.0699 56.9999 25.7351C57.1218 25.4264 57.2274 25.134 57.2924 24.9228H60.38C60.2573 25.7772 59.9821 26.6027 59.5675 27.3598C59.2033 28.0139 58.718 28.5929 58.1375 29.0657C57.5562 29.5167 56.8944 29.8531 56.1874 30.0568C54.4807 30.5688 52.6509 30.4886 50.9955 29.8293C50.1776 29.4765 49.452 28.94 48.8749 28.2615C48.2725 27.5292 47.8223 26.6841 47.5505 25.7757C47.229 24.7232 47.0754 23.6266 47.0955 22.5263C47.0833 21.6899 47.1734 20.8552 47.3636 20.0406C47.5079 19.3571 47.7429 18.6959 48.0624 18.0747C48.3648 17.5267 48.7421 17.0236 49.1836 16.58C49.5914 16.1672 50.06 15.8193 50.573 15.5483C51.0747 15.2781 51.6065 15.0681 52.1574 14.9228C52.707 14.8005 53.2681 14.7378 53.8312 14.7359C54.5595 14.7243 55.2863 14.8089 55.9924 14.9878C56.5612 15.1445 57.1073 15.3738 57.6174 15.6701C58.0674 15.9328 58.4755 16.2614 58.8281 16.6449C59.1348 16.9912 59.407 17.3667 59.6406 17.766C59.8281 18.1402 59.9857 18.5286 60.1118 18.9276C60.212 19.2802 60.2746 19.6423 60.2987 20.0081H57.2437L57.0974 19.4963C57.0331 19.3078 56.9515 19.1256 56.8537 18.952ZM72.4372 18.9683H68.6509L64.5153 23.16V18.9683H61.6553V30.0081H64.5072V26.5231L65.6691 25.3371L68.9191 30.0081H72.6485L67.9034 23.558L72.4372 18.9683ZM72.5182 22.1449C72.7505 21.4571 73.1336 20.8299 73.6394 20.309C74.1399 19.7858 74.7466 19.3759 75.4188 19.1068C76.1645 18.8058 76.9628 18.6567 77.7669 18.6681C78.5844 18.6545 79.3964 18.8037 80.1557 19.1068C80.8242 19.374 81.4259 19.7844 81.9189 20.309C82.4059 20.8565 82.7862 21.4902 83.0401 22.1774C83.5383 23.7001 83.5383 25.3419 83.0401 26.8647C82.7881 27.5529 82.4076 28.1869 81.9189 28.7331C81.4194 29.25 80.8194 29.6591 80.1557 29.9353C79.3964 30.2384 78.5844 30.3876 77.7669 30.374C76.9628 30.3854 76.1645 30.2363 75.4188 29.9353C74.7514 29.6573 74.1464 29.2485 73.6394 28.7331C73.122 28.1865 72.7382 27.5275 72.5182 26.8078C71.9874 25.2904 71.9874 23.6379 72.5182 22.1206V22.1449ZM75.2563 25.7111C75.3203 26.1031 75.4671 26.477 75.6869 26.8078C75.8866 27.1415 76.1657 27.4206 76.4994 27.6202C76.882 27.8214 77.3105 27.9194 77.7426 27.9045C78.1959 27.9251 78.6468 27.8271 79.0507 27.6202C79.3778 27.4295 79.656 27.1653 79.8632 26.8484C80.0761 26.5199 80.2224 26.1529 80.2938 25.768C80.4671 24.9348 80.4671 24.0748 80.2938 23.2416C80.2211 22.8495 80.075 22.4747 79.8632 22.1368C79.6403 21.7918 79.327 21.5147 78.9573 21.3356C78.5876 21.1566 78.1759 21.0824 77.7669 21.1214C77.3349 21.1065 76.9064 21.2045 76.5238 21.4057C76.1921 21.6079 75.9135 21.8864 75.7113 22.218C75.4846 22.5477 75.3296 22.9214 75.2563 23.3147C75.1672 23.726 75.1182 24.145 75.11 24.5657C75.122 24.9513 75.171 25.3349 75.2563 25.7111ZM88.7681 23.3469L88.8088 21.2917H92.2538V30.0082H95.0894V18.8953H86.2087L86.1275 23.0707C86.1031 24.0455 86.0625 24.8335 86.0056 25.4509C85.9554 25.9439 85.8574 26.4309 85.7131 26.905C85.6401 27.1789 85.4874 27.4249 85.2744 27.6118C85.1159 27.752 84.9089 27.8249 84.6975 27.8148C84.5244 27.8295 84.3505 27.8295 84.1775 27.8148L83.8037 27.693V30.13C83.9969 30.2099 84.1986 30.2672 84.405 30.3006C84.6162 30.3412 84.8843 30.3412 85.2175 30.3412C85.8145 30.3665 86.4056 30.2138 86.9156 29.9026C87.3786 29.5623 87.743 29.1054 87.9719 28.5784C88.2538 27.8806 88.4423 27.1486 88.5325 26.4014C88.6381 25.524 88.7194 24.5086 88.7681 23.3469ZM104.125 18.9683H107.944L103.386 23.558L108.139 30.0081H104.41L101.16 25.3371L99.9977 26.5231V30.0081H97.1377V18.9683H99.9977V23.16L104.125 18.9683ZM109.122 20.2762C108.618 20.8111 108.235 21.4484 108 22.1446V22.1771C107.48 23.6962 107.48 25.3452 108 26.8643C108.233 27.5615 108.616 28.1992 109.122 28.7327C109.633 29.2465 110.24 29.655 110.909 29.935C111.655 30.2366 112.453 30.3857 113.257 30.3737C114.072 30.3872 114.881 30.2381 115.638 29.935C116.304 29.663 116.905 29.2533 117.401 28.7327C117.895 28.1907 118.277 27.5555 118.522 26.8643C119.02 25.3416 119.02 23.6998 118.522 22.1771C118.275 21.4868 117.894 20.8519 117.401 20.3087C116.915 19.7688 116.312 19.3465 115.638 19.0739C114.881 18.7708 114.072 18.6217 113.257 18.6352C112.453 18.6232 111.655 18.7724 110.909 19.0739C110.236 19.3449 109.627 19.7545 109.122 20.2762ZM111.202 26.8156C110.972 26.4844 110.817 26.1075 110.747 25.7108C110.655 25.3355 110.603 24.9515 110.592 24.5654C110.596 24.1444 110.645 23.725 110.738 23.3144C110.812 22.921 110.967 22.5474 111.193 22.2177C111.396 21.886 111.674 21.6075 112.006 21.4054C112.392 21.2042 112.823 21.1062 113.257 21.121C113.668 21.0814 114.082 21.156 114.454 21.3366C114.825 21.5172 115.139 21.7968 115.362 22.1446C115.573 22.4825 115.72 22.8573 115.792 23.2494C115.966 24.0826 115.966 24.9426 115.792 25.7758C115.721 26.1606 115.575 26.5277 115.362 26.8562C115.154 27.173 114.876 27.4373 114.549 27.6279C114.153 27.8308 113.711 27.9287 113.265 27.9123C112.831 27.9271 112.4 27.8291 112.014 27.6279C111.68 27.4291 111.4 27.1499 111.202 26.8156ZM127.42 19.0985C127.855 19.186 128.274 19.3394 128.663 19.5535C129.019 19.7731 129.313 20.0809 129.516 20.447C129.741 20.8889 129.847 21.3815 129.825 21.8768C129.835 22.151 129.803 22.4252 129.727 22.6891C129.671 22.9147 129.572 23.1271 129.435 23.3146C129.325 23.4854 129.185 23.6342 129.02 23.7533C128.864 23.8743 128.695 23.9778 128.517 24.062C129.035 24.2164 129.483 24.5468 129.784 24.9962C130.084 25.4511 130.237 25.9869 130.223 26.5315C130.232 27.0146 130.146 27.4947 129.971 27.945C129.799 28.3545 129.538 28.7207 129.207 29.0173C128.862 29.3371 128.452 29.5783 128.005 29.7241C127.498 29.8983 126.965 29.9835 126.429 29.9759H120.237V18.9686H125.925C126.426 18.9641 126.927 19.0076 127.42 19.0985ZM126.136 23.2253C126.313 23.179 126.481 23.102 126.632 22.9978C126.758 22.9117 126.853 22.7859 126.9 22.6404C126.961 22.4743 126.989 22.2975 126.981 22.1205C126.987 21.9648 126.959 21.8096 126.9 21.6656C126.842 21.5282 126.749 21.408 126.632 21.3163C126.488 21.2104 126.325 21.1331 126.152 21.0888C125.904 21.0207 125.646 20.9906 125.389 20.9994H123.105V23.3065H125.307C125.585 23.3045 125.863 23.2773 126.136 23.2253ZM126.323 27.8475C126.538 27.7727 126.734 27.6537 126.9 27.4982C127.031 27.3817 127.124 27.2291 127.168 27.0596C127.212 26.912 127.234 26.7587 127.233 26.6046C127.247 26.3722 127.211 26.1395 127.127 25.9223C127.07 25.7484 126.952 25.6012 126.794 25.508C126.62 25.3755 126.411 25.2965 126.193 25.2805C125.9 25.2347 125.604 25.2129 125.307 25.2155H123.105V27.9775H125.307C125.651 27.9894 125.994 27.9455 126.323 27.8475ZM132.497 20.2858C131.994 20.8164 131.614 21.451 131.384 22.1446H131.424C130.894 23.662 130.894 25.3145 131.424 26.8318C131.657 27.529 132.04 28.1667 132.546 28.7002C133.056 29.2159 133.663 29.6246 134.333 29.9025C135.076 30.2041 135.872 30.3532 136.673 30.3412C137.491 30.3547 138.303 30.2056 139.062 29.9025C139.709 29.6331 140.295 29.2351 140.784 28.7327C141.279 28.1907 141.66 27.5555 141.906 26.8643C142.404 25.3416 142.404 23.6998 141.906 22.1771C141.658 21.4868 141.277 20.8519 140.784 20.3087C140.296 19.7709 139.694 19.349 139.021 19.0739C138.262 18.7708 137.45 18.6217 136.633 18.6352C135.831 18.6232 135.035 18.7724 134.293 19.0739C133.612 19.3414 132.999 19.7551 132.497 20.2858ZM134.577 26.8156C134.347 26.4844 134.192 26.1075 134.122 25.7108C134.034 25.3348 133.982 24.9512 133.968 24.5654C133.976 24.1446 134.025 23.7257 134.114 23.3144C134.187 22.921 134.342 22.5474 134.569 22.2177C134.771 21.886 135.05 21.6075 135.381 21.4053C135.764 21.2052 136.192 21.1073 136.624 21.121C137.07 21.0953 137.515 21.1848 137.916 21.381C138.241 21.5718 138.518 21.8327 138.729 22.1446C138.947 22.4803 139.096 22.8558 139.168 23.2494C139.33 24.0837 139.33 24.9415 139.168 25.7758C139.097 26.1622 138.948 26.53 138.729 26.8562C138.523 27.1742 138.245 27.4387 137.916 27.6279C137.52 27.8315 137.078 27.9294 136.633 27.9123C136.201 27.926 135.772 27.8281 135.389 27.6279C135.056 27.4283 134.777 27.1493 134.577 26.8156Z" fill="white"/>
</svg>
