<svg width="36" height="36" viewBox="0 0 36 36" fill="none" xmlns="http://www.w3.org/2000/svg">
<path d="M19.5 13.5C19.5 13.1022 19.658 12.7206 19.9393 12.4393C20.2206 12.158 20.6022 12 21 12H30C30.3978 12 30.7794 12.158 31.0607 12.4393C31.342 12.7206 31.5 13.1022 31.5 13.5V28.5C31.5 28.8978 31.342 29.2794 31.0607 29.5607C30.7794 29.842 30.3978 30 30 30H21C20.6022 30 20.2206 29.842 19.9393 29.5607C19.658 29.2794 19.5 28.8978 19.5 28.5V13.5Z" stroke="#111827" stroke-width="2" stroke-linecap="round" stroke-linejoin="round"/>
<path d="M27 12V7.5C27 7.10218 26.842 6.72064 26.5607 6.43934C26.2794 6.15804 25.8978 6 25.5 6H6C5.60218 6 5.22064 6.15804 4.93934 6.43934C4.65804 6.72064 4.5 7.10218 4.5 7.5V25.5C4.5 25.8978 4.65804 26.2794 4.93934 26.5607C5.22064 26.842 5.60218 27 6 27H19.5" stroke="#111827" stroke-width="2" stroke-linecap="round" stroke-linejoin="round"/>
<path d="M24 13.5H27" stroke="#111827" stroke-width="2" stroke-linecap="round" stroke-linejoin="round"/>
</svg>
