<svg width="24" height="24" viewBox="0 0 24 24" fill="none" xmlns="http://www.w3.org/2000/svg">
<g clip-path="url(#clip0_1188_5668)">
<path d="M21.1695 17.1089C22.0419 15.5475 22.5 13.7886 22.5 11.9999C22.5 10.2113 22.0419 8.45242 21.1695 6.89094L21.3105 6.74995C21.5914 6.46845 21.7491 6.08704 21.7491 5.68941C21.7491 5.29177 21.5914 4.91037 21.3105 4.62887L19.3713 2.68937C19.0897 2.40859 18.7083 2.25091 18.3106 2.25091C17.913 2.25091 17.5315 2.40859 17.25 2.68937L17.1092 2.83C15.5476 1.95771 13.7888 1.49976 12.0001 1.49976C10.2114 1.49976 8.45253 1.95771 6.89097 2.83L6.74997 2.68937C6.46843 2.40851 6.08699 2.25078 5.68932 2.25078C5.29165 2.25078 4.91021 2.40851 4.62867 2.68937L2.68939 4.62887C2.40855 4.91037 2.25083 5.29177 2.25083 5.68941C2.25083 6.08704 2.40855 6.46845 2.68939 6.74995L2.83024 6.89057C1.95795 8.45222 1.5 10.2112 1.5 11.9999C1.5 13.7887 1.95795 15.5477 2.83024 17.1093L2.68939 17.2499C2.40855 17.5314 2.25083 17.9128 2.25083 18.3105C2.25083 18.7081 2.40855 19.0895 2.68939 19.371L4.62867 21.3105C4.91018 21.5914 5.29163 21.7492 5.68932 21.7492C6.08701 21.7492 6.46846 21.5914 6.74997 21.3105L6.89097 21.1695C8.45249 22.0419 10.2114 22.4999 12 22.4999C13.7887 22.5 15.5476 22.0421 17.1092 21.1699L17.25 21.3105C17.5315 21.5914 17.9129 21.7492 18.3106 21.7492C18.7083 21.7492 19.0898 21.5914 19.3713 21.3105L21.3105 19.371C21.5914 19.0895 21.7491 18.7081 21.7491 18.3105C21.7491 17.9128 21.5914 17.5314 21.3105 17.2499L21.1695 17.1089ZM21 11.9999C20.9995 13.3876 20.6774 14.7563 20.059 15.9986L17.1379 13.0773C17.2873 12.3668 17.2873 11.6331 17.1379 10.9226L20.059 8.00132C20.6774 9.24359 20.9995 10.6123 21 11.9999ZM20.25 5.68937L16.549 9.39032C16.0847 8.58441 15.4158 7.91539 14.61 7.45089L18.3107 3.74995L20.25 5.68937ZM12 15.7499C11.2583 15.7499 10.5333 15.53 9.91658 15.118C9.2999 14.7059 8.81925 14.1202 8.53542 13.435C8.25159 12.7498 8.17733 11.9958 8.32202 11.2684C8.46672 10.5409 8.82387 9.87274 9.34832 9.34829C9.87276 8.82385 10.541 8.46669 11.2684 8.322C11.9958 8.1773 12.7498 8.25157 13.435 8.5354C14.1203 8.81922 14.7059 9.29987 15.118 9.91656C15.53 10.5332 15.75 11.2583 15.75 11.9999C15.7488 12.9942 15.3534 13.9473 14.6504 14.6503C13.9474 15.3534 12.9942 15.7488 12 15.7499ZM15.9865 3.95282L13.0773 6.86199C12.3669 6.7126 11.6331 6.7126 10.9226 6.86199L8.01342 3.95282C9.25702 3.35379 10.6196 3.04272 12 3.04272C13.3803 3.04272 14.7429 3.35379 15.9865 3.95282ZM5.68939 3.74995L9.39034 7.45089C8.58442 7.91538 7.9154 8.5844 7.45092 9.39032L3.74997 5.68937L5.68939 3.74995ZM2.99997 11.9999C3.00045 10.6124 3.32253 9.24378 3.94092 8.00162L6.86202 10.9226C6.71262 11.6331 6.71262 12.3668 6.86202 13.0773L3.94092 15.9983C3.32253 14.7561 3.00045 13.3875 2.99997 11.9999ZM5.68924 20.2499L3.74997 18.3105L7.45092 14.6099C7.91536 15.4159 8.58439 16.0849 9.39034 16.5494L5.68924 20.2499ZM8.01342 20.0474L10.9226 17.1383C11.6331 17.2877 12.3669 17.2877 13.0773 17.1383L15.9865 20.0474C14.7429 20.6465 13.3803 20.9575 12 20.9575C10.6196 20.9575 9.25702 20.6465 8.01342 20.0474ZM18.3109 20.2499L14.61 16.549C15.4157 16.0846 16.0846 15.4157 16.549 14.6099L20.25 18.3105L18.3109 20.2499Z" fill="#3C3C3C"/>
</g>
<defs>
<clipPath id="clip0_1188_5668">
<rect width="24" height="24" fill="white"/>
</clipPath>
</defs>
</svg>
