<svg width="24" height="24" viewBox="0 0 24 24" fill="none" xmlns="http://www.w3.org/2000/svg">
<path d="M11.9999 2.3999C6.6983 2.3999 2.3999 6.6983 2.3999 11.9999C2.3999 13.8009 2.90578 15.48 3.76865 16.9202L2.48584 21.5999L7.26553 20.3452C8.66339 21.14 10.2771 21.5999 11.9999 21.5999C17.3015 21.5999 21.5999 17.3015 21.5999 11.9999C21.5999 6.6983 17.3015 2.3999 11.9999 2.3999ZM8.71396 7.52178C8.86997 7.52178 9.03025 7.52083 9.16865 7.52803C9.33985 7.53203 9.52619 7.54456 9.70459 7.93896C9.91659 8.40776 10.3782 9.58383 10.4374 9.70303C10.4966 9.82223 10.5386 9.96265 10.4562 10.1187C10.3778 10.2787 10.337 10.3755 10.2218 10.5171C10.1026 10.6547 9.97196 10.8256 9.86397 10.9296C9.74476 11.0488 9.62168 11.1795 9.75928 11.4171C9.89688 11.6547 10.3748 12.4336 11.0812 13.0624C11.9892 13.8736 12.7553 14.1229 12.9937 14.2421C13.2321 14.3613 13.3701 14.3427 13.5077 14.1827C13.6493 14.0267 14.1024 13.4914 14.2624 13.253C14.4184 13.0146 14.5777 13.0559 14.7937 13.1343C15.0129 13.2127 16.1818 13.7885 16.4202 13.9077C16.6586 14.0269 16.8149 14.0859 16.8749 14.1827C16.9365 14.2827 16.9366 14.7588 16.739 15.314C16.5414 15.8684 15.571 16.4045 15.1358 16.4421C14.6966 16.4829 14.2868 16.6395 12.2812 15.8499C9.86195 14.8971 8.33629 12.4193 8.21709 12.2593C8.09789 12.1033 7.24834 10.971 7.24834 9.80303C7.24834 8.63103 7.86283 8.05705 8.07803 7.81865C8.29723 7.58025 8.55397 7.52178 8.71396 7.52178Z" fill="white"/>
</svg>
