<svg width="168" height="47" viewBox="0 0 168 47" fill="none" xmlns="http://www.w3.org/2000/svg">
<path fill-rule="evenodd" clip-rule="evenodd" d="M116.68 18.8731C119.163 17.2147 122.084 16.3267 125.074 16.3213C127.062 16.3176 129.031 16.7045 130.869 17.4599C132.707 18.2152 134.377 19.3241 135.785 20.7231C137.192 22.1221 138.308 23.7838 139.07 25.6131C139.832 27.4423 140.223 29.4032 140.223 31.3835C140.223 34.3614 139.337 37.2724 137.677 39.7488C136.016 42.2251 133.656 44.1557 130.895 45.2965C128.133 46.4374 125.094 46.7373 122.162 46.1583C119.229 45.5794 116.535 44.1475 114.419 42.0439C112.303 39.9401 110.86 37.2589 110.274 34.3389C109.687 31.4189 109.982 28.3913 111.123 25.6385C112.263 22.8858 114.197 20.5315 116.68 18.8731ZM122.482 35.247C123.249 35.7575 124.151 36.03 125.074 36.03C125.688 36.0362 126.298 35.9202 126.866 35.6889C127.435 35.4576 127.952 35.1155 128.386 34.6828C128.821 34.2501 129.164 33.7354 129.396 33.1689C129.629 32.6024 129.745 31.9954 129.739 31.3835C129.739 30.4645 129.465 29.5661 128.953 28.802C128.44 28.0379 127.712 27.4423 126.859 27.0906C126.007 26.7389 125.069 26.6469 124.164 26.8262C123.259 27.0055 122.428 27.448 121.775 28.0979C121.123 28.7477 120.679 29.5757 120.499 30.477C120.319 31.3783 120.411 32.3126 120.764 33.1617C121.117 34.0107 121.715 34.7364 122.482 35.247ZM108.261 45.5434H92.5475H81.4901L91.7161 26.9203H81.5548V17.2223H108.732L98.2378 35.8362H108.261V45.5434ZM141.045 17.2223V26.9203H149.257V45.5434H159.788V26.9203H168V17.2223H141.045ZM46 45.545L58.1012 17.2423H67.8283L79.9757 45.545H68.7059L65.6668 36.6935L62.6276 45.545H46ZM62.6276 27.842L59.5515 36.7027L65.6668 36.6843L62.6276 27.842Z" fill="white"/>
<path fill-rule="evenodd" clip-rule="evenodd" d="M0 15.3322L12.4167 1.10083C13.0484 0.376761 13.8755 0.000541572 14.8364 4.83381e-07C15.7974 -0.000491787 16.6247 0.375015 17.2572 1.09851L29.7001 15.3322V43.0684C29.7001 44.8968 28.2042 46.3925 26.376 46.3925H3.3241C1.49579 46.3925 0 44.8968 0 43.0684V15.3322ZM17.0949 3.96817C16.7682 3.04359 15.8866 2.38096 14.85 2.38096C13.8134 2.38096 12.9319 3.04359 12.6051 3.96817L11.1373 8.33791C10.8088 9.31579 12.4865 10.3447 13.9103 10.3447H15.7897C17.2136 10.3447 18.8911 9.31544 18.5628 8.33791L17.0949 3.96817ZM9.30357 27.3606H24.0802L23.7273 29.5456C23.6863 29.7551 23.5969 30.2936 23.487 30.956L23.487 30.9562C23.2251 32.5345 22.8464 34.8165 22.7267 35.0309C22.5945 35.2674 22.2512 35.4821 21.8806 35.4821H12.2363C11.4254 35.4821 11.271 34.797 11.1296 34.1698L11.1296 34.1697C11.1081 34.0746 11.087 33.9808 11.0639 33.891C10.9972 33.631 10.7881 32.8765 10.5361 31.9673L10.536 31.9669L10.5359 31.9665C10.0264 30.1281 9.34165 27.6574 9.30357 27.3606ZM2.64842 20.0288C2.64842 21.1045 3.43244 21.0744 4.20488 21.0448C4.51984 21.0327 4.83288 21.0208 5.09005 21.0838C5.34251 21.1457 5.42474 21.2306 5.57029 21.3932C5.69924 21.5372 5.74531 21.697 5.80469 21.9031C5.81205 21.9286 5.81962 21.9549 5.82757 21.9819C6.26456 23.4672 6.6807 25.0125 7.09509 26.5514C7.50491 28.0733 7.91301 29.5888 8.33785 31.0335C8.46918 31.4799 8.58647 31.9181 8.70434 32.3585C8.81738 32.7809 8.93097 33.2053 9.05801 33.6409C9.1093 33.8168 9.16173 34.0137 9.21646 34.2193C9.39739 34.8989 9.60344 35.6729 9.87679 36.0932C10.2461 36.6611 11.086 37.2868 12.0107 37.2868H22.1062C22.6172 37.2868 23.1107 37.0313 23.4381 36.814C24.3417 36.2142 24.4932 35.4413 24.6723 34.5275C24.6832 34.4719 24.6942 34.4157 24.7055 34.359L25.8523 28.0612C25.8831 27.8976 25.918 27.7366 25.952 27.5799L25.952 27.5798L25.952 27.5798L25.9521 27.5797C26.1326 26.7476 26.2875 26.034 25.6613 25.6667C25.366 25.4935 23.7252 25.529 22.8451 25.5481C22.6455 25.5524 22.485 25.5559 22.3882 25.5559H8.79593C8.6748 25.3035 8.48638 24.6032 8.26756 23.7899L8.26754 23.7898C7.91772 22.4896 7.49022 20.9007 7.13583 20.3916C6.88377 20.0294 6.54483 19.7229 6.14701 19.5193C5.51041 19.1938 4.79827 19.211 4.01523 19.2299H4.01521H4.0152H4.01518C3.82686 19.2344 3.63444 19.2391 3.43798 19.2391C3.08578 19.2391 2.64842 19.6766 2.64842 20.0288ZM14.2667 31.8725C13.8577 31.8725 13.4771 31.4814 13.4771 30.8574C13.4771 30.5052 13.9145 30.0677 14.2667 30.0677H19.9067C20.2589 30.0677 20.6962 30.5052 20.6962 30.8574C20.6962 31.4814 20.3156 31.8725 19.9067 31.8725H14.2667ZM12.5748 40.7836C12.5748 41.3783 12.6711 41.7437 13.0662 42.1533C14.2568 43.3877 16.1843 42.3711 16.1843 41.0655C16.1843 40.4797 16.1245 40.0705 15.6649 39.611C14.5523 38.4983 12.5748 39.2884 12.5748 40.7836ZM18.4805 42.1533C18.0853 41.7437 17.9891 41.3783 17.9891 40.7836C17.9891 39.2884 19.9665 38.4983 21.0793 39.611C21.5388 40.0705 21.5987 40.4797 21.5987 41.0655C21.5987 42.3711 19.671 43.3877 18.4805 42.1533Z" fill="white"/>
</svg>
