<svg width="160" height="48" viewBox="0 0 160 48" fill="none" xmlns="http://www.w3.org/2000/svg">
<path fill-rule="evenodd" clip-rule="evenodd" d="M13.523 0.429421C13.678 0.163529 13.9625 0 14.2703 0H40.9946C41.3009 0 41.5844 0.162041 41.7398 0.425999L46.3233 8.20932L46.3251 8.21225C46.3442 8.2449 46.3609 8.2785 46.3754 8.31281C46.4792 8.55903 46.464 8.84212 46.3292 9.07785L46.3251 9.08505L46.3233 9.08798L42.5076 15.5676H50.0757C50.3895 15.5676 50.6786 15.7375 50.8313 16.0117L55.0625 23.6107L55.0631 23.6117C55.2175 23.8798 55.2169 24.2099 55.0616 24.4775L41.6562 47.5693C41.5009 47.8368 41.2147 48.001 40.9054 48L14.388 47.9129C14.3801 47.9132 14.3721 47.9134 14.3641 47.9135C14.0541 47.9161 13.7664 47.7526 13.61 47.485L0.118117 24.3931C-0.038936 24.1243 -0.0394009 23.7918 0.1169 23.5225L13.5223 0.430653C13.5225 0.430242 13.5228 0.429832 13.523 0.429421ZM14.2612 2.60312L1.86571 23.9554L14.342 45.3091L17.6852 39.3553L9.11117 24.4769L9.11012 24.4751C8.99445 24.2744 8.96565 24.0388 9.02367 23.8208C9.04275 23.7491 9.07122 23.6793 9.10907 23.6132L9.10975 23.612L9.11064 23.6105L17.6857 8.64626L14.2612 2.60312ZM15.8322 46.188L40.4112 46.2686L52.8115 24.9081H28.1797L24.7542 30.9529H40.9132C41.2192 30.9529 41.5024 31.1146 41.658 31.3781C41.8135 31.6416 41.8183 31.9677 41.6705 32.2356L41.6654 32.2448L37.514 39.7691L37.5108 39.7749C37.3673 40.0303 37.105 40.1947 36.8151 40.2143C36.8019 40.2151 36.7886 40.2157 36.7753 40.216C36.7684 40.2162 36.7615 40.2162 36.7546 40.2162H19.1872L15.8322 46.188ZM19.1809 38.4865H35.2172L31.6871 32.6919H23.2649L23.2612 32.6919C22.9484 32.6906 22.6607 32.5205 22.5088 32.247L18.4317 24.9081H11.356L19.1809 38.4865ZM11.3519 23.1784H18.4372L22.5129 16.0052L22.5155 16.0007C22.6313 15.7997 22.821 15.6566 23.039 15.5976C23.1117 15.5779 23.1876 15.5676 23.2649 15.5676H40.5002L44.0654 9.51351H19.1823L11.3519 23.1784ZM19.1851 7.78378H44.0654L40.5002 1.72973H15.7544L19.1851 7.78378ZM23.2684 30.0524L26.6786 24.0476L23.2723 18.1701L19.9326 24.048L23.2684 30.0524ZM24.7657 17.2973L28.1741 23.1784H52.842L49.5673 17.2973H24.7657ZM36.7197 37.6282L33.7126 32.6919H39.4432L36.7197 37.6282Z" fill="url(#paint0_linear_3835_2663)"/>
<path d="M131.55 34.0105L129.474 29.7595L127.448 34.0105H131.55ZM134.024 39.0917L133.061 37.0991H126.004L125.057 39.0917H120.275L126.386 26.7373H132.729L139.188 39.0917H134.024Z" fill="white"/>
<path d="M99.4136 39.0917V26.7373H105.89L109.676 33.6784L113.528 26.7373H119.739V39.0917H115.072V31.3868L110.738 39.0917H108.331L104.013 31.3868V39.0917H99.4136Z" fill="white"/>
<path d="M88.4909 26.5049H89.2381C97.2087 26.5049 98.2382 30.3075 98.2382 32.6323V33.1304C98.2382 35.4386 97.2253 39.3243 89.2381 39.3243H88.4909C80.4871 39.3243 79.4741 35.4386 79.4741 33.1304V32.6323C79.4741 30.3075 80.4871 26.5049 88.4909 26.5049ZM93.3562 32.981V32.7485C93.3562 31.4367 92.5094 29.826 88.8562 29.826C85.1366 29.826 84.3561 31.4367 84.3561 32.7485V32.9478C84.3561 34.243 85.203 35.9866 88.8562 35.9866C92.5094 35.9866 93.3562 34.3094 93.3562 32.981Z" fill="white"/>
<path d="M61.0781 39.0917V26.7373H69.8458C76.9695 26.7373 78.7629 29.6765 78.7629 32.5824V33.0806C78.7629 35.8869 77.2186 39.0917 69.8624 39.0917H61.0781ZM65.7941 29.9754V35.8205H69.2978C73.4159 35.8205 73.8643 34.0105 73.8643 32.9311V32.8315C73.8643 31.7521 73.4159 29.9754 69.2978 29.9754H65.7941Z" fill="white"/>
<path d="M139.176 22.4867V10.1323H145.652L149.438 17.0734L153.29 10.1323H159.501V22.4867H154.835V14.7818L150.501 22.4867H148.093L143.775 14.7818V22.4867H139.176Z" fill="white"/>
<path d="M137.583 10.1323V22.4867H132.884V10.1323H137.583Z" fill="white"/>
<path d="M121.616 22.4867V13.5032H116.286V10.1323H131.662V13.5032H126.332V22.4867H121.616Z" fill="white"/>
<path d="M108.337 22.7188H106.825C100.001 22.7188 99.2866 19.9457 99.2866 18.335V18.1689H104.468C104.517 18.8331 104.866 19.9125 107.556 19.9125H107.706C110.346 19.9125 110.728 19.3479 110.728 18.7501V18.7335C110.728 18.1025 110.412 17.704 107.822 17.6209L105.53 17.5545C100.748 17.4217 99.4693 15.7445 99.4693 13.8349V13.6854C99.4693 11.6762 100.814 9.91602 106.576 9.91602H108.054C114.165 9.91602 115.56 11.8588 115.56 13.8183V13.9511H110.429C110.379 13.5028 110.113 12.6393 107.44 12.6393H107.274C104.8 12.6393 104.551 13.071 104.551 13.5526V13.5692C104.551 14.0674 104.916 14.4659 107.241 14.5157L109.466 14.5655C114.165 14.6984 115.992 15.7943 115.992 18.2851V18.5176C115.992 20.5933 114.829 22.7188 108.337 22.7188Z" fill="white"/>
<path d="M88.9284 9.89941H89.6756C97.6462 9.89941 98.6757 13.7021 98.6757 16.0268V16.525C98.6757 18.8331 97.6628 22.7188 89.6756 22.7188H88.9284C80.9246 22.7188 79.9116 18.8331 79.9116 16.525V16.0268C79.9116 13.7021 80.9246 9.89941 88.9284 9.89941ZM93.7937 16.3755V16.143C93.7937 14.8312 92.9469 13.2205 89.2937 13.2205C85.5741 13.2205 84.7936 14.8312 84.7936 16.143V16.3423C84.7936 17.6375 85.6405 19.3811 89.2937 19.3811C92.9469 19.3811 93.7937 17.704 93.7937 16.3755Z" fill="white"/>
<path d="M69.3809 22.7188H68.999C62.2406 22.7188 60.6631 19.0988 60.6631 16.4918V16.0268C60.6631 13.3699 62.1244 9.89941 69.4141 9.89941H70.0617C77.6338 9.89941 78.6633 12.9382 78.7298 14.6652V14.6818H73.8146C73.7315 14.3663 73.2998 13.1209 69.8127 13.1209C66.4916 13.1209 65.5451 14.5489 65.5451 16.1763V16.3589C65.5451 17.9364 66.7241 19.4807 69.7795 19.4807C72.9677 19.4807 73.9972 18.335 73.9972 17.9364H69.6632V15.5286H78.8128V22.4863H75.8404C75.7574 22.0878 75.4917 21.2243 75.2592 20.776C74.7777 21.3073 73.2334 22.7188 69.3809 22.7188Z" fill="white"/>
<defs>
<linearGradient id="paint0_linear_3835_2663" x1="12.627" y1="-4.28814e-07" x2="41.5135" y2="48.0865" gradientUnits="userSpaceOnUse">
<stop stop-color="#0FBE61"/>
<stop offset="1" stop-color="#89D6AD"/>
</linearGradient>
</defs>
</svg>
