<svg width="168" height="47" viewBox="0 0 168 47" fill="none" xmlns="http://www.w3.org/2000/svg">
<path fill-rule="evenodd" clip-rule="evenodd" d="M116.68 18.8732C119.163 17.2148 122.084 16.3268 125.074 16.3213C127.062 16.3177 129.031 16.7046 130.869 17.4599C132.707 18.2152 134.377 19.3242 135.785 20.7232C137.192 22.1222 138.308 23.7839 139.07 25.6131C139.832 27.4424 140.223 29.4032 140.223 31.3836C140.223 34.3614 139.337 37.2725 137.677 39.7488C136.016 42.2252 133.656 44.1558 130.895 45.2966C128.133 46.4374 125.094 46.7373 122.162 46.1584C119.229 45.5794 116.535 44.1476 114.419 42.0439C112.303 39.9402 110.86 37.2589 110.274 34.3389C109.687 31.419 109.982 28.3913 111.123 25.6386C112.263 22.8858 114.197 20.5315 116.68 18.8732ZM122.482 35.2471C123.249 35.7576 124.151 36.0301 125.074 36.0301C125.688 36.0363 126.298 35.9203 126.866 35.689C127.435 35.4576 127.952 35.1156 128.386 34.6829C128.821 34.2502 129.164 33.7355 129.396 33.169C129.629 32.6025 129.745 31.9955 129.739 31.3836C129.739 30.4645 129.465 29.5662 128.953 28.802C128.44 28.0379 127.712 27.4424 126.859 27.0907C126.007 26.739 125.069 26.647 124.164 26.8262C123.259 27.0056 122.428 27.4481 121.775 28.0979C121.123 28.7478 120.679 29.5757 120.499 30.477C120.319 31.3784 120.411 32.3127 120.764 33.1617C121.117 34.0108 121.715 34.7364 122.482 35.2471ZM108.261 45.5434H92.5475H81.4901L91.7161 26.9204H81.5548V17.2224H108.732L98.2378 35.8363H108.261V45.5434ZM141.045 17.2224V26.9204H149.257V45.5434H159.788V26.9204H168V17.2224H141.045ZM46 45.545L58.1012 17.2424H67.8283L79.9757 45.545H68.7059L65.6668 36.6936L62.6276 45.545H46ZM62.6276 27.8421L59.5515 36.7028L65.6668 36.6843L62.6276 27.8421Z" fill="#39B635"/>
<path fill-rule="evenodd" clip-rule="evenodd" d="M0 15.3322L12.4167 1.10083C13.0484 0.376761 13.8755 0.000541572 14.8364 4.83381e-07C15.7974 -0.000491787 16.6247 0.375015 17.2572 1.09851L29.7001 15.3322V43.0684C29.7001 44.8968 28.2042 46.3925 26.376 46.3925H3.3241C1.49579 46.3925 0 44.8968 0 43.0684V15.3322ZM17.0949 3.96817C16.7682 3.04359 15.8866 2.38096 14.85 2.38096C13.8134 2.38096 12.9319 3.04359 12.6051 3.96817L11.1373 8.33791C10.8088 9.31579 12.4865 10.3447 13.9103 10.3447H15.7897C17.2136 10.3447 18.8911 9.31544 18.5628 8.33791L17.0949 3.96817ZM9.30357 27.3607H24.0802L23.7273 29.5457C23.6863 29.7552 23.5969 30.2937 23.487 30.9561L23.487 30.9563C23.2251 32.5346 22.8464 34.8167 22.7267 35.031C22.5945 35.2675 22.2512 35.4823 21.8806 35.4823H12.2363C11.4254 35.4823 11.271 34.7972 11.1296 34.1699L11.1296 34.1698C11.1081 34.0747 11.087 33.9809 11.0639 33.8911C10.9972 33.6311 10.7881 32.8765 10.536 31.9671L10.5359 31.9667L10.5358 31.9664C10.0264 30.1281 9.34164 27.6575 9.30357 27.3607ZM2.64842 20.0289C2.64842 21.1046 3.43244 21.0745 4.20488 21.0449C4.51984 21.0329 4.83288 21.0209 5.09005 21.0839C5.34251 21.1459 5.42474 21.2308 5.57029 21.3933C5.69924 21.5373 5.74531 21.6971 5.80469 21.9032C5.81205 21.9287 5.81962 21.955 5.82757 21.982C6.26456 23.4673 6.6807 25.0127 7.09509 26.5515L7.0951 26.5516C7.50492 28.0734 7.91301 29.5889 8.33785 31.0336C8.46918 31.48 8.58646 31.9182 8.70433 32.3586L8.70434 32.3586C8.81739 32.781 8.93097 33.2054 9.05801 33.641C9.1093 33.8169 9.16173 34.0138 9.21646 34.2194C9.39739 34.899 9.60344 35.673 9.87679 36.0933C10.2461 36.6612 11.086 37.2869 12.0107 37.2869H22.1062C22.6172 37.2869 23.1107 37.0315 23.4381 36.8141C24.3417 36.2143 24.4932 35.4415 24.6723 34.5276C24.6832 34.472 24.6942 34.4158 24.7055 34.3591L25.8523 28.0613C25.8831 27.8977 25.918 27.7367 25.952 27.58L25.952 27.5799L25.952 27.5799L25.9521 27.5798C26.1326 26.7477 26.2875 26.0341 25.6613 25.6668C25.366 25.4937 23.7252 25.5292 22.8451 25.5482C22.6455 25.5525 22.485 25.556 22.3882 25.556H8.79593C8.6748 25.3036 8.48638 24.6033 8.26756 23.79L8.26754 23.7899C7.91772 22.4898 7.49022 20.9009 7.13583 20.3917C6.88377 20.0296 6.54483 19.723 6.14701 19.5194C5.51041 19.1939 4.79827 19.2111 4.01523 19.23H4.01521H4.0152H4.01518C3.82686 19.2345 3.63444 19.2392 3.43798 19.2392C3.08578 19.2392 2.64842 19.6767 2.64842 20.0289ZM14.2667 31.8726C13.8577 31.8726 13.4771 31.4815 13.4771 30.8575C13.4771 30.5053 13.9145 30.0678 14.2667 30.0678H19.9067C20.2589 30.0678 20.6962 30.5053 20.6962 30.8575C20.6962 31.4815 20.3156 31.8726 19.9067 31.8726H14.2667ZM12.5748 40.7837C12.5748 41.3785 12.6711 41.7438 13.0662 42.1534C14.2568 43.3878 16.1843 42.3712 16.1843 41.0657C16.1843 40.4798 16.1245 40.0706 15.6649 39.6111C14.5523 38.4984 12.5748 39.2885 12.5748 40.7837ZM18.4805 42.1534C18.0853 41.7438 17.9891 41.3785 17.9891 40.7837C17.9891 39.2885 19.9665 38.4984 21.0793 39.6111C21.5388 40.0706 21.5987 40.4798 21.5987 41.0657C21.5987 42.3712 19.671 43.3878 18.4805 42.1534Z" fill="#39B635"/>
</svg>
