<svg width="512" height="222" viewBox="0 0 512 222" fill="none" xmlns="http://www.w3.org/2000/svg">
<path d="M343.475 146.231L383.086 74.4351H299.737L343.475 146.231Z" stroke="#35C87A" stroke-width="2" stroke-linejoin="round"/>
<path d="M171 146.232H343.475L383.087 74.4357H214.738L173.475 0.164062H86.8252L171 146.232Z" stroke="#35C87A" stroke-width="2" stroke-linejoin="round"/>
<path d="M129.738 219.679L171 146.232L86.825 0.16452L171 -146.728L128.912 -221L1 -0.660721L129.738 219.679Z" stroke="#35C87A" stroke-width="2" stroke-linejoin="round"/>
<path d="M214.738 -72.4571L173.475 0.164093H86.8252L171 -146.729H427.65L383.912 -72.4571H214.738Z" stroke="#35C87A" stroke-width="2" stroke-linejoin="round"/>
<path d="M214.738 -72.4575L256.825 0.163666H510.999L470.562 -72.4575H214.738Z" stroke="#35C87A" stroke-width="2" stroke-linejoin="round"/>
<path d="M173.474 0.163666L214.736 -72.4575L256.823 0.163666L214.736 74.4353L173.474 0.163666Z" stroke="#35C87A" stroke-width="2" stroke-linejoin="round"/>
<path d="M256.825 0.164062L214.695 74.3478H383.135L343.475 146.232H170.983L129.744 219.672L383.088 220.503L511 0.164062H256.825Z" stroke="#35C87A" stroke-width="2" stroke-linejoin="round"/>
</svg>
