<svg width="388" height="443" viewBox="0 0 388 443" fill="none" xmlns="http://www.w3.org/2000/svg">
<path d="M343.475 368.231L383.086 296.435H299.737L343.475 368.231Z" stroke="#DADCDE" stroke-linejoin="round"/>
<path d="M171 368.232H343.475L383.087 296.436H214.738L173.475 222.164H86.8252L171 368.232Z" stroke="#DADCDE" stroke-linejoin="round"/>
<path d="M129.738 441.679L171 368.232L86.825 222.165L171 75.2717L128.912 1L1 221.339L129.738 441.679Z" stroke="#DADCDE" stroke-linejoin="round"/>
<path d="M214.738 149.543L173.475 222.164H86.8252L171 75.2712H427.65L383.912 149.543H214.738Z" stroke="#DADCDE" stroke-linejoin="round"/>
<path d="M128.913 1L171 75.2717H427.65L383.912 1H128.913Z" stroke="#DADCDE" stroke-linejoin="round"/>
<path d="M214.738 149.542L256.825 222.164H510.999L470.562 149.542H214.738Z" stroke="#DADCDE" stroke-linejoin="round"/>
<path d="M173.474 222.164L214.736 149.542L256.823 222.164L214.736 296.435L173.474 222.164Z" stroke="#DADCDE" stroke-linejoin="round"/>
<path d="M256.825 222.164L214.695 296.348H383.135L343.475 368.232H170.983L129.744 441.672L383.088 442.503L511 222.164H256.825Z" stroke="#DADCDE" stroke-linejoin="round"/>
</svg>
