<svg width="512" height="274" viewBox="0 0 512 274" fill="none" xmlns="http://www.w3.org/2000/svg">
<path d="M171 368.232H343.475L383.087 296.436H214.738L173.475 222.164H86.8252L171 368.232Z" stroke="#1E2533" stroke-width="2" stroke-linejoin="round"/>
<path d="M129.738 441.679L171 368.232L86.825 222.165L171 75.2717L128.912 1L1 221.339L129.738 441.679Z" stroke="#1E2533" stroke-width="2" stroke-linejoin="round"/>
<path d="M214.738 149.543L173.475 222.164H86.8252L171 75.2715H427.65L383.912 149.543H214.738Z" stroke="#1E2533" stroke-width="2" stroke-linejoin="round"/>
<path d="M128.912 1L171 75.2717H427.65L383.912 1H128.912Z" stroke="#1E2533" stroke-width="2" stroke-linejoin="round"/>
<path d="M214.738 149.542L256.825 222.164H510.999L470.562 149.542H214.738Z" stroke="#1E2533" stroke-width="2" stroke-linejoin="round"/>
<path d="M173.474 222.164L214.736 149.542L256.824 222.164L214.736 296.435L173.474 222.164Z" stroke="#1E2533" stroke-width="2" stroke-linejoin="round"/>
<path d="M256.825 222.164L214.694 296.348H383.135L343.475 368.232H170.982L129.744 441.672L383.088 442.503L511 222.164H256.825Z" stroke="#1E2533" stroke-width="2" stroke-linejoin="round"/>
</svg>
