<svg width="376" height="370" viewBox="0 0 376 370" fill="none" xmlns="http://www.w3.org/2000/svg">
<path d="M207.475 294.231L247.086 222.435H163.737L207.475 294.231Z" stroke="#1E2533" stroke-width="2" stroke-linejoin="round"/>
<path d="M34.9997 294.232H207.475L247.087 222.436H78.7375L37.4755 148.164H-49.1748L34.9997 294.232Z" stroke="#1E2533" stroke-width="2" stroke-linejoin="round"/>
<path d="M-6.26245 367.679L34.9996 294.232L-49.175 148.165L34.9996 1.27167L-7.08768 -73L-135 147.339L-6.26245 367.679Z" stroke="#1E2533" stroke-width="2" stroke-linejoin="round"/>
<path d="M78.7375 75.5432L37.4755 148.164H-49.1748L34.9997 1.27148H291.65L247.912 75.5432H78.7375Z" stroke="#1E2533" stroke-width="2" stroke-linejoin="round"/>
<path d="M-7.0874 -73L34.9999 1.27167H291.65L247.912 -73H-7.0874Z" stroke="#1E2533" stroke-width="2" stroke-linejoin="round"/>
<path d="M78.7378 75.5425L120.825 148.164H374.999L334.562 75.5425H78.7378Z" stroke="#1E2533" stroke-width="2" stroke-linejoin="round"/>
<path d="M37.4741 148.164L78.7362 75.5425L120.823 148.164L78.7362 222.435L37.4741 148.164Z" stroke="#1E2533" stroke-width="2" stroke-linejoin="round"/>
<path d="M120.825 148.164L78.6947 222.348H247.135L207.475 294.232H34.9827L-6.25586 367.672L247.088 368.503L375 148.164H120.825Z" stroke="#1E2533" stroke-width="2" stroke-linejoin="round"/>
</svg>
