<svg width="376" height="443" viewBox="0 0 376 443" fill="none" xmlns="http://www.w3.org/2000/svg">
<path d="M207.475 368.231L247.086 296.435H163.737L207.475 368.231Z" stroke="#DADCDE" stroke-linejoin="round"/>
<path d="M34.9997 368.232H207.475L247.087 296.436H78.7375L37.4755 222.164H-49.1748L34.9997 368.232Z" stroke="#DADCDE" stroke-linejoin="round"/>
<path d="M-6.26245 441.679L34.9996 368.232L-49.175 222.165L34.9996 75.2717L-7.08768 1L-135 221.339L-6.26245 441.679Z" stroke="#DADCDE" stroke-linejoin="round"/>
<path d="M78.7375 149.543L37.4755 222.164H-49.1748L34.9997 75.2712H291.65L247.912 149.543H78.7375Z" stroke="#DADCDE" stroke-linejoin="round"/>
<path d="M-7.0874 1L34.9999 75.2717H291.65L247.912 1H-7.0874Z" stroke="#DADCDE" stroke-linejoin="round"/>
<path d="M78.7378 149.542L120.825 222.164H374.999L334.562 149.542H78.7378Z" stroke="#DADCDE" stroke-linejoin="round"/>
<path d="M37.4741 222.164L78.7362 149.542L120.823 222.164L78.7362 296.435L37.4741 222.164Z" stroke="#DADCDE" stroke-linejoin="round"/>
<path d="M120.825 222.164L78.6947 296.348H247.135L207.475 368.232H34.9827L-6.25586 441.672L247.088 442.503L375 222.164H120.825Z" stroke="#DADCDE" stroke-linejoin="round"/>
</svg>
